<?xml version="1.0" encoding="UTF-8"?>
<svg width="320px" height="320px" viewBox="0 0 320 320" version="1.1" xmlns="http://www.w3.org/2000/svg">
    <g id="mark" stroke="none" stroke-width="1" fill="none" fill-rule="evenodd">
        <g id="Group">
            <path d="M71.7887856,-2.90035286e-15 L248.211214,2.90035286e-15 C273.173739,-1.68518854e-15 282.225754,2.59911711 291.35168,7.47971571 C300.477606,12.3603143 307.639686,19.5223944 312.520284,28.6483203 C317.400883,37.7742462 320,46.8262609 320,71.7887856 L320,248.211214 C320,273.173739 317.400883,282.225754 312.520284,291.35168 C307.639686,300.477606 300.477606,307.639686 291.35168,312.520284 C282.225754,317.400883 273.173739,320 248.211214,320 L71.7887856,320 C46.8262609,320 37.7742462,317.400883 28.6483203,312.520284 C19.5223944,307.639686 12.3603143,300.477606 7.47971571,291.35168 C2.59911711,282.225754 1.12345902e-15,273.173739 -1.93356857e-15,248.211214 L1.93356857e-15,71.7887856 C-1.12345902e-15,46.8262609 2.59911711,37.7742462 7.47971571,28.6483203 C12.3603143,19.5223944 19.5223944,12.3603143 28.6483203,7.47971571 C37.7742462,2.59911711 46.8262609,1.68518854e-15 71.7887856,-2.90035286e-15 Z" id="Rectangle" fill="#4A4A4A"></path>
            <path d="M74.0325625,111.437062 L75.2025625,113.118937 C73.2519375,114.240812 71.1681875,115.130187 68.9506875,115.787687 C66.7313125,116.446437 64.3800625,116.775187 61.8938125,116.775187 C58.2856875,116.775187 54.8981875,116.093312 51.7294375,114.727687 C48.5600625,113.363312 45.7938125,111.498937 43.4300625,109.133312 C41.0644375,106.769562 39.2000625,104.003312 37.8356875,100.833937 C36.4700625,97.6658125 35.7881875,94.2776875 35.7881875,90.6695625 C35.7881875,87.0620625 36.4700625,83.6620625 37.8356875,80.4689375 C39.2000625,77.2764375 41.0644375,74.4970625 43.4300625,72.1320625 C45.7938125,69.7683125 48.5600625,67.8914375 51.7294375,66.5020625 C54.8981875,65.1120625 58.2856875,64.4176875 61.8938125,64.4176875 C64.3800625,64.4176875 66.7313125,64.7351875 68.9506875,65.3683125 C71.1681875,66.0026875 73.2763125,66.9039375 75.2756875,68.0739375 C74.9831875,68.5614375 74.5925625,69.1226875 74.1056875,69.7558125 C70.4494375,67.5139375 66.3781875,66.3920625 61.8938125,66.3920625 C58.5781875,66.3920625 55.4588125,67.0389375 52.5338125,68.3295625 C49.6088125,69.6220625 47.0606875,71.3645625 44.8919375,73.5583125 C42.7225625,75.7520625 41.0044375,78.3239375 39.7369375,81.2726875 C38.4688125,84.2233125 37.8356875,87.3789375 37.8356875,90.7426875 C37.8356875,94.0583125 38.4688125,97.1776875 39.7369375,100.102687 C41.0044375,103.027687 42.7100625,105.575812 44.8556875,107.743937 C47.0006875,109.913937 49.5231875,111.632687 52.4244375,112.899562 C55.3238125,114.167687 58.4319375,114.800812 61.7475625,114.800812 C63.9894375,114.800812 66.1350625,114.508312 68.1825625,113.923312 C70.2300625,113.338312 72.1794375,112.510187 74.0325625,111.437062" id="Path" stroke="#FFFFFF" fill="#FFFFFF"></path>
            <path d="M98.25075,89.7189375 L106.221375,89.7189375 C108.902,89.7189375 111.12075,89.3533125 112.87575,88.6220625 C114.63075,87.8908125 116.031375,86.9526875 117.080125,85.8070625 C118.12825,84.6620625 118.8595,83.4189375 119.2745,82.0770625 C119.687625,80.7370625 119.89575,79.4333125 119.89575,78.1651875 C119.89575,76.7026875 119.553875,75.2895625 118.872,73.9239375 C118.188875,72.5595625 117.23825,71.3645625 116.020125,70.3408125 C114.80075,69.3170625 113.362625,68.5014375 111.70575,67.8914375 C110.047625,67.2820625 108.243875,66.9770625 106.2945,66.9770625 L98.25075,66.9770625 L98.25075,89.7189375 Z M96.20325,116.190187 L96.20325,65.0026875 L106.806375,65.0026875 C108.268875,65.0026875 109.877625,65.2470625 111.632625,65.7339375 C113.387625,66.2220625 115.03325,66.9895625 116.568875,68.0376875 C118.1045,69.0864375 119.383875,70.4501875 120.407625,72.1320625 C121.431375,73.8145625 121.94325,75.8251875 121.94325,78.1651875 C121.94325,81.6270625 121.003875,84.5033125 119.127625,86.7939375 C117.25075,89.0858125 114.50825,90.5964375 110.901375,91.3276875 C112.85075,95.4720625 114.80075,99.6158125 116.751375,103.758937 C118.70075,107.903312 120.675125,112.047062 122.6745,116.190187 L120.48075,116.190187 C118.530125,112.047062 116.580125,107.927062 114.63075,103.832062 C112.680125,99.7370625 110.730125,95.6176875 108.78075,91.4739375 C107.805125,91.6201875 106.806375,91.6933125 105.782625,91.6933125 L98.25075,91.6933125 L98.25075,116.190187 L96.20325,116.190187 Z" id="Fill-3" stroke="#FFFFFF" fill="#FFFFFF"></path>
            <path d="M140.842,90.7428125 C140.842,94.0584375 141.475125,97.1778125 142.74325,100.102813 C144.01075,103.027813 145.716375,105.575313 147.862,107.744063 C150.007,109.914063 152.5295,111.632188 155.43075,112.899688 C158.330125,114.167813 161.43825,114.800938 164.753875,114.800938 C168.068875,114.800938 171.20075,114.167813 174.150125,112.899688 C177.0995,111.632188 179.682625,109.901563 181.902,107.707813 C184.1195,105.514063 185.8745,102.954688 187.167,100.029688 C188.457625,97.1046875 189.1045,93.9853125 189.1045,90.6696875 C189.1045,87.3553125 188.47075,84.2228125 187.20325,81.2728125 C185.935125,78.3240625 184.205125,75.7521875 182.012,73.5584375 C179.817625,71.3646875 177.246375,69.6221875 174.297,68.3296875 C171.346375,67.0390625 168.2145,66.3921875 164.90075,66.3921875 C161.5845,66.3921875 158.465125,67.0390625 155.540125,68.3296875 C152.615125,69.6221875 150.067,71.3646875 147.898875,73.5584375 C145.728875,75.7521875 144.01075,78.3240625 142.74325,81.2728125 C141.475125,84.2228125 140.842,87.3790625 140.842,90.7428125 M138.7945,90.6696875 C138.7945,87.0621875 139.476375,83.6621875 140.842,80.4690625 C142.206375,77.2765625 144.071375,74.4971875 146.436375,72.1321875 C148.800125,69.7684375 151.566375,67.8909375 154.73575,66.5015625 C157.9045,65.1121875 161.292,64.4178125 164.90075,64.4178125 C168.507,64.4178125 171.90825,65.1121875 175.101375,66.5015625 C178.29325,67.8909375 181.072625,69.7684375 183.437625,72.1321875 C185.801375,74.4971875 187.678875,77.2765625 189.06825,80.4690625 C190.457,83.6621875 191.152625,87.0621875 191.152625,90.6696875 C191.152625,94.2778125 190.457,97.6659375 189.06825,100.834063 C187.678875,104.003438 185.801375,106.769688 183.437625,109.133438 C181.072625,111.498438 178.29325,113.363438 175.101375,114.727813 C171.90825,116.093438 168.507,116.775313 164.90075,116.775313 C161.292,116.775313 157.9045,116.093438 154.73575,114.727813 C151.566375,113.363438 148.800125,111.498438 146.436375,109.133438 C144.071375,106.769688 142.206375,104.003438 140.842,100.834063 C139.476375,97.6659375 138.7945,94.2778125 138.7945,90.6696875" id="Fill-5" stroke="#FFFFFF" fill="#FFFFFF"></path>
            <path d="M231.46975,69.097625 C231.225375,69.342625 231.031,69.6095 230.88475,69.902 C230.7385,70.1945 230.5435,70.46325 230.29975,70.706375 C229.861,70.317 229.312875,69.89075 228.65475,69.427 C227.996,68.963875 227.23975,68.525125 226.387875,68.110125 C225.534125,67.697 224.571,67.355125 223.499125,67.087 C222.426,66.8195 221.280375,66.6845 220.06225,66.6845 C218.257875,66.6845 216.686,66.9895 215.346,67.598875 C214.00475,68.208875 212.8835,69.0245 211.981625,70.04825 C211.079125,71.072 210.410375,72.242 209.971625,73.55825 C209.53225,74.8745 209.312875,76.240125 209.312875,77.65325 C209.312875,79.11575 209.53225,80.371375 209.971625,81.4195 C210.410375,82.46825 211.042875,83.357 211.872875,84.08825 C212.701,84.8195 213.700375,85.453875 214.870375,85.9895 C216.040375,86.526375 217.356625,87.038875 218.819125,87.525125 C220.32975,88.062 222.060375,88.6345 224.011,89.243875 C225.960375,89.853875 227.801,90.706375 229.531625,91.80325 C231.26225,92.8995 232.72475,94.302 233.91975,96.007625 C235.1135,97.715125 235.711,99.90825 235.711,102.588875 C235.711,104.735125 235.309125,106.683875 234.504125,108.438875 C233.69975,110.193875 232.591,111.69325 231.17725,112.936375 C229.762875,114.1795 228.117875,115.130125 226.241625,115.78825 C224.364125,116.446375 222.37725,116.775125 220.28225,116.775125 C218.381,116.775125 216.63725,116.5195 215.052875,116.007625 C213.4685,115.49575 212.066625,114.886375 210.8485,114.1795 C209.62975,113.47325 208.581625,112.742 207.70475,111.98575 C206.826625,111.230125 206.1435,110.5845 205.656625,110.047625 L207.119125,108.585125 C207.801625,109.316375 208.581625,110.047625 209.459125,110.778875 C210.336625,111.510125 211.311625,112.16825 212.384125,112.75325 C213.456,113.33825 214.626,113.826375 215.894125,114.21575 C217.161,114.606375 218.551,114.80075 220.06225,114.80075 C221.817875,114.80075 223.511,114.52075 225.14475,113.960125 C226.77725,113.400125 228.22725,112.607 229.495375,111.58325 C230.76225,110.5595 231.7735,109.305125 232.52975,107.817625 C233.285375,106.33075 233.6635,104.661375 233.6635,102.80825 C233.6635,100.567 233.175375,98.702 232.201,97.2145 C231.225375,95.727625 229.99475,94.497 228.5085,93.521375 C227.021,92.547 225.400375,91.766375 223.645375,91.181375 C221.890375,90.596375 220.2085,90.036375 218.59975,89.4995 C217.72225,89.256375 216.649125,88.90325 215.38225,88.4395 C214.114125,87.976375 212.896,87.31825 211.726,86.465125 C210.556,85.612625 209.544125,84.5395 208.691625,83.247625 C207.837875,81.956375 207.362875,80.335125 207.265375,78.3845 C207.16725,76.77575 207.34975,75.15575 207.8135,73.522 C208.276625,71.888875 209.03225,70.413875 210.080375,69.097625 C211.1285,67.781375 212.494125,66.721375 214.176,65.917 C215.857875,65.112625 217.8685,64.710125 220.2085,64.710125 C222.060375,64.710125 223.912875,65.027625 225.766,65.66075 C227.6185,66.295125 229.51975,67.44075 231.46975,69.097625" id="Fill-7" stroke="#FFFFFF" fill="#FFFFFF"></path>
            <path d="M278.7805,69.097625 C278.536125,69.342625 278.34175,69.6095 278.1955,69.902 C278.04925,70.1945 277.85425,70.46325 277.6105,70.706375 C277.17175,70.317 276.623625,69.89075 275.9655,69.427 C275.30675,68.963875 274.5505,68.525125 273.698625,68.110125 C272.844875,67.697 271.88175,67.355125 270.809875,67.087 C269.73675,66.8195 268.591125,66.6845 267.373,66.6845 C265.568625,66.6845 263.99675,66.9895 262.65675,67.598875 C261.3155,68.208875 260.19425,69.0245 259.292375,70.04825 C258.389875,71.072 257.721125,72.242 257.282375,73.55825 C256.843,74.8745 256.623625,76.240125 256.623625,77.65325 C256.623625,79.11575 256.843,80.371375 257.282375,81.4195 C257.721125,82.46825 258.353625,83.357 259.183625,84.08825 C260.01175,84.8195 261.011125,85.453875 262.181125,85.9895 C263.351125,86.526375 264.667375,87.038875 266.129875,87.525125 C267.6405,88.062 269.371125,88.6345 271.32175,89.243875 C273.271125,89.853875 275.11175,90.706375 276.842375,91.80325 C278.573,92.8995 280.0355,94.302 281.2305,96.007625 C282.42425,97.715125 283.02175,99.90825 283.02175,102.588875 C283.02175,104.735125 282.619875,106.683875 281.814875,108.438875 C281.0105,110.193875 279.90175,111.69325 278.488,112.936375 C277.073625,114.1795 275.428625,115.130125 273.552375,115.78825 C271.674875,116.446375 269.688,116.775125 267.593,116.775125 C265.69175,116.775125 263.948,116.5195 262.363625,116.007625 C260.77925,115.49575 259.377375,114.886375 258.15925,114.1795 C256.9405,113.47325 255.892375,112.742 255.0155,111.98575 C254.137375,111.230125 253.45425,110.5845 252.967375,110.047625 L254.429875,108.585125 C255.112375,109.316375 255.892375,110.047625 256.769875,110.778875 C257.647375,111.510125 258.622375,112.16825 259.694875,112.75325 C260.76675,113.33825 261.93675,113.826375 263.204875,114.21575 C264.47175,114.606375 265.86175,114.80075 267.373,114.80075 C269.128625,114.80075 270.82175,114.52075 272.4555,113.960125 C274.088,113.400125 275.538,112.607 276.806125,111.58325 C278.073,110.5595 279.08425,109.305125 279.8405,107.817625 C280.596125,106.33075 280.97425,104.661375 280.97425,102.80825 C280.97425,100.567 280.486125,98.702 279.51175,97.2145 C278.536125,95.727625 277.3055,94.497 275.81925,93.521375 C274.33175,92.547 272.711125,91.766375 270.956125,91.181375 C269.201125,90.596375 267.51925,90.036375 265.9105,89.4995 C265.033,89.256375 263.959875,88.90325 262.693,88.4395 C261.424875,87.976375 260.20675,87.31825 259.03675,86.465125 C257.86675,85.612625 256.854875,84.5395 256.002375,83.247625 C255.148625,81.956375 254.673625,80.335125 254.576125,78.3845 C254.478,76.77575 254.6605,75.15575 255.12425,73.522 C255.587375,71.888875 256.343,70.413875 257.391125,69.097625 C258.43925,67.781375 259.804875,66.721375 261.48675,65.917 C263.168625,65.112625 265.17925,64.710125 267.51925,64.710125 C269.371125,64.710125 271.223625,65.027625 273.07675,65.66075 C274.92925,66.295125 276.8305,67.44075 278.7805,69.097625" id="Fill-9" stroke="#FFFFFF" fill="#FFFFFF"></path>
            <path d="M98.620625,142.936375 L101.403125,142.936375 C97.958125,151.06325 94.535,159.146375 91.134375,167.183875 C87.733125,175.22325 84.310625,183.30575 80.865625,191.431375 L69.139375,163.805125 L68.543125,162.016375 C66.77625,166.918875 64.8,171.843875 62.61375,176.790125 C60.4275,181.737625 58.29625,186.61825 56.220625,191.431375 C52.775625,183.30575 49.3525,175.22325 45.951875,167.183875 C42.550625,159.146375 39.128125,151.06325 35.683125,142.936375 L38.465625,142.936375 C41.33625,149.73825 44.185,156.49575 47.011875,163.208875 C49.838125,169.92325 52.709375,176.657625 55.624375,183.415125 C55.7125,183.7245 55.811875,184.0345 55.9225,184.342625 C56.0325,184.652 56.131875,184.961375 56.220625,185.270125 C57.721875,180.853875 59.455625,176.458875 61.42125,172.086375 C63.38625,167.713875 65.296875,163.3645 67.151875,159.035125 C66.003125,156.297 64.86625,153.602625 63.74,150.952625 C62.61375,148.302625 61.47625,145.631375 60.328125,142.936375 L63.176875,142.936375 C66.003125,149.73825 68.83,156.49575 71.656875,163.208875 C74.483125,169.92325 77.354375,176.657625 80.269375,183.415125 C80.3575,183.7245 80.456875,184.0345 80.5675,184.342625 C80.6775,184.652 80.776875,184.961375 80.865625,185.270125 C80.95375,184.961375 81.053125,184.652 81.16375,184.342625 C81.27375,184.0345 81.373125,183.7245 81.461875,183.415125 C84.376875,176.6145 87.2475,169.867 90.074375,163.17575 C92.900625,156.4845 95.749375,149.73825 98.620625,142.936375" id="Fill-21" fill="#FFFFFF"></path>
            <path d="M129.054563,148.832688 C128.965813,148.523938 128.866438,148.214563 128.756438,147.905188 C128.645813,147.596438 128.546438,147.287063 128.458313,146.977688 C127.309563,150.334563 126.017688,153.647063 124.582688,156.915188 C123.147063,160.184563 121.722688,163.473938 120.309563,166.786438 L136.673313,166.786438 C135.392063,163.738938 134.122688,160.735813 132.863938,157.776438 C131.605187,154.818313 130.335188,151.837063 129.054563,148.832688 M148.995813,189.311438 L146.213313,189.311438 C144.799563,185.998938 143.397688,182.686438 142.006438,179.373938 C140.615188,176.061438 139.212688,172.748938 137.799563,169.436438 L119.183313,169.436438 C117.769563,172.748938 116.367688,176.061438 114.976438,179.373938 C113.585188,182.686438 112.182688,185.998938 110.769563,189.311438 L107.920813,189.311438 C111.365813,181.185813 114.788313,173.103313 118.189563,165.063938 C121.590188,157.025813 125.013313,148.943313 128.458313,140.816438 C131.903313,148.943313 135.325813,157.025813 138.727063,165.063938 C142.127688,173.103313 145.550813,181.185813 148.995813,189.311438" id="Fill-23" fill="#FFFFFF"></path>
            <polygon id="Fill-25" fill="#FFFFFF" points="192.351687 142.936375 192.351687 145.586375 175.391687 145.586375 175.391687 189.311375 172.675438 189.311375 172.675438 145.586375 155.715438 145.586375 155.715438 142.936375"></polygon>
            <polygon id="Fill-27" fill="#FFFFFF" points="209.14125 189.3115 209.14125 142.9365 236.635 142.9365 236.635 145.5865 211.858125 145.5865 211.858125 164.60025 234.05125 164.60025 234.05125 167.25025 211.858125 167.25025 211.858125 186.6615 237.563125 186.6615 237.563125 189.3115"></polygon>
            <path d="M261.130375,164.798875 L268.01975,164.798875 C270.316,164.798875 272.22725,164.49075 273.750375,163.871375 C275.27475,163.25325 276.4885,162.45825 277.394125,161.486375 C278.299125,160.515125 278.929125,159.46575 279.282875,158.3395 C279.635375,157.21325 279.812875,156.120125 279.812875,155.060125 C279.812875,153.823875 279.51475,152.632 278.9185,151.482625 C278.32225,150.3345 277.494125,149.318875 276.4335,148.435125 C275.374125,147.552 274.125375,146.856375 272.690375,146.34825 C271.25475,145.84075 269.71975,145.586375 268.086625,145.586375 L261.130375,145.586375 L261.130375,164.798875 Z M258.4135,189.311375 L258.4135,142.936375 L268.351625,142.936375 C269.71975,142.936375 271.221625,143.15825 272.856625,143.598875 C274.48975,144.041375 276.02475,144.747625 277.461,145.718875 C278.895375,146.69075 280.09975,147.950125 281.071,149.495125 C282.04225,151.042 282.5285,152.897 282.5285,155.060125 C282.5285,158.240125 281.677875,160.8795 279.977875,162.977 C278.277875,165.075125 275.81475,166.455125 272.591625,167.117625 C274.35725,170.872 276.112875,174.582 277.8585,178.247625 C279.602875,181.9145 281.336,185.602 283.059125,189.311375 L280.07725,189.311375 C278.355375,185.602 276.632875,181.93575 274.910375,178.313875 C273.187875,174.69325 271.46475,171.048875 269.74225,167.382625 C269.345375,167.427625 268.957875,167.460125 268.5835,167.482 C268.20725,167.505125 267.821625,167.515125 267.4235,167.515125 L261.130375,167.515125 L261.130375,189.311375 L258.4135,189.311375 Z" id="Fill-29" fill="#FFFFFF"></path>
            <path d="M39.5010625,235.945437 L39.5010625,252.370437 L46.9823125,252.370437 C48.3691875,252.370437 49.6723125,252.201687 50.8916875,251.864187 C52.1098125,251.526687 53.1785625,251.020437 54.0979375,250.345437 C55.0160625,249.670437 55.7479375,248.836062 56.2916875,247.842312 C56.8348125,246.849187 57.1073125,245.676687 57.1073125,244.326687 C57.1073125,242.864187 56.7979375,241.608562 56.1791875,240.557937 C55.5604375,239.508562 54.7354375,238.636687 53.7041875,237.942312 C52.6723125,237.248562 51.4910625,236.742312 50.1604375,236.423562 C48.8285625,236.105437 47.4504375,235.945437 46.0260625,235.945437 L39.5010625,235.945437 Z M39.5010625,217.494812 L39.5010625,233.694812 L46.9260625,233.694812 C49.5885625,233.694812 51.7073125,232.917312 53.2823125,231.361062 C54.8573125,229.805437 55.6448125,227.770437 55.6448125,225.257312 C55.6448125,223.871062 55.4285625,222.679812 54.9979375,221.686062 C54.5660625,220.692937 53.9573125,219.886062 53.1698125,219.266687 C52.3823125,218.648562 51.4348125,218.197937 50.3291875,217.917312 C49.2223125,217.636062 48.0135625,217.494812 46.7010625,217.494812 L39.5010625,217.494812 Z M37.1948125,254.620437 L37.1948125,215.245437 L46.1948125,215.245437 C47.9566875,215.245437 49.5598125,215.433562 51.0041875,215.807937 C52.4473125,216.182937 53.6848125,216.764187 54.7166875,217.551687 C55.7479375,218.339187 56.5448125,219.361687 57.1073125,220.617312 C57.6698125,221.873562 57.9510625,223.364812 57.9510625,225.089187 C57.9510625,227.414812 57.3785625,229.457937 56.2354375,231.219812 C55.0910625,232.983562 53.3385625,234.183562 50.9760625,234.820437 C52.1010625,235.045437 53.1698125,235.420437 54.1823125,235.945437 C55.1948125,236.471062 56.0854375,237.146062 56.8541875,237.970437 C57.6223125,238.796062 58.2410625,239.752312 58.7104375,240.839187 C59.1785625,241.927312 59.4135625,243.145437 59.4135625,244.495437 C59.4135625,246.182937 59.0760625,247.654812 58.4010625,248.911062 C57.7260625,250.167937 56.8166875,251.217312 55.6729375,252.061062 C54.5285625,252.904812 53.2260625,253.542937 51.7635625,253.973562 C50.3010625,254.404812 48.7823125,254.620437 47.2073125,254.620437 L37.1948125,254.620437 Z" id="Fill-31" stroke="#FFFFFF" stroke-width="0.5" fill="#FFFFFF"></path>
            <path d="M86.59425,233.808 L92.44425,233.808 C94.393625,233.808 96.016125,233.546125 97.309875,233.0205 C98.603625,232.4955 99.63425,231.8205 100.403625,230.9955 C101.17175,230.171125 101.706125,229.279875 102.00675,228.323625 C102.30675,227.36675 102.45675,226.43925 102.45675,225.53925 C102.45675,224.489875 102.203625,223.477375 101.697375,222.50175 C101.191125,221.527375 100.488,220.664875 99.588,219.91425 C98.688,219.16425 97.628,218.573625 96.409875,218.142375 C95.1905,217.71175 93.887375,217.494875 92.5005,217.494875 L86.59425,217.494875 L86.59425,233.808 Z M84.288,254.6205 L84.288,215.2455 L92.7255,215.2455 C93.887375,215.2455 95.162375,215.433625 96.5505,215.808 C97.937375,216.183 99.2405,216.783625 100.459875,217.608 C101.678,218.433 102.7005,219.50175 103.5255,220.81425 C104.349875,222.127375 104.763,223.702375 104.763,225.53925 C104.763,228.23925 104.0405,230.4805 102.597375,232.2605 C101.153,234.042375 99.062375,235.21425 96.3255,235.776125 C97.824875,238.96425 99.3155,242.11425 100.797375,245.22675 C102.278,248.339875 103.7505,251.4705 105.213,254.6205 L102.68175,254.6205 C101.21925,251.4705 99.75675,248.358 98.29425,245.282375 C96.83175,242.208 95.36925,239.114875 93.90675,236.00175 C93.56925,236.03925 93.2405,236.067375 92.922375,236.086125 C92.603,236.1055 92.2755,236.113625 91.938,236.113625 L86.59425,236.113625 L86.59425,254.6205 L84.288,254.6205 Z" id="Fill-33" stroke="#FFFFFF" stroke-width="0.5" fill="#FFFFFF"></path>
            <polygon id="Fill-35" stroke="#FFFFFF" stroke-width="0.5" fill="#FFFFFF" points="130.424375 215.245625 132.730625 215.245625 132.730625 254.620625 130.424375 254.620625"></polygon>
            <path d="M160.630188,217.495125 L160.630188,252.313875 L165.524563,252.313875 C168.636438,252.313875 171.355188,251.817625 173.680188,250.82325 C176.005188,249.830125 177.935813,248.526375 179.473938,246.913875 C181.011438,245.302 182.164563,243.4545 182.933313,241.37325 C183.702063,239.292 184.086438,237.14575 184.086438,234.932625 C184.086438,232.27075 183.626438,229.861375 182.708938,227.7045 C181.788938,225.548875 180.533313,223.71075 178.939563,222.192625 C177.345813,220.67325 175.488938,219.512 173.370813,218.705125 C171.252063,217.898875 168.992063,217.495125 166.593313,217.495125 L160.630188,217.495125 Z M158.323938,215.245125 L166.593313,215.245125 C169.292688,215.245125 171.842688,215.705125 174.242688,216.62325 C176.642688,217.542625 178.742688,218.855125 180.542688,220.56075 C182.342688,222.26825 183.767688,224.3395 184.818313,226.777 C185.867063,229.2145 186.392688,231.93325 186.392688,234.932625 C186.392688,237.14575 186.007688,239.4145 185.239563,241.738875 C184.470813,244.065125 183.223313,246.182625 181.498938,248.095125 C179.773313,250.00825 177.533313,251.573875 174.777063,252.792625 C172.020813,254.011375 168.654563,254.620125 164.680188,254.620125 L158.323938,254.620125 L158.323938,215.245125 Z" id="Fill-37" stroke="#FFFFFF" stroke-width="0.5" fill="#FFFFFF"></path>
            <path d="M225.573125,239.995125 L225.573125,237.745125 L232.99875,237.745125 C234.12375,237.745125 234.910625,237.951375 235.360625,238.3645 C235.81125,238.777625 236.035625,239.527 236.035625,240.613875 L236.035625,252.257625 C234.535625,253.12075 232.9325,253.805125 231.22625,254.31075 C229.519375,254.817625 227.710625,255.070125 225.798125,255.070125 C223.023125,255.070125 220.416875,254.54575 217.98,253.49575 C215.54125,252.44575 213.41375,251.011375 211.595625,249.192625 C209.77625,247.373875 208.341875,245.24575 207.291875,242.807625 C206.241875,240.37075 205.716875,237.765125 205.716875,234.988875 C205.716875,232.2145 206.241875,229.598875 207.291875,227.142625 C208.341875,224.686375 209.77625,222.548875 211.595625,220.730125 C213.41375,218.911375 215.54125,217.467 217.98,216.39825 C220.416875,215.3295 223.023125,214.79575 225.798125,214.79575 C227.710625,214.79575 229.519375,215.0395 231.22625,215.527 C232.9325,216.0145 234.55375,216.707625 236.091875,217.60825 C235.8675,217.90825 235.650625,218.226375 235.445,218.563875 C235.23875,218.901375 235.023125,219.22075 234.79875,219.520125 C233.485,218.732625 232.070625,218.123875 230.551875,217.692 C229.0325,217.261375 227.448125,217.045125 225.798125,217.045125 C223.36,217.045125 221.06375,217.52325 218.9075,218.4795 C216.75125,219.43575 214.86625,220.730125 213.254375,222.36075 C211.641875,223.992625 210.37625,225.89575 209.458125,228.070125 C208.538125,230.245125 208.08,232.570125 208.08,235.045125 C208.08,237.48325 208.538125,239.780125 209.458125,241.93575 C210.37625,244.09325 211.641875,245.977 213.254375,247.588875 C214.86625,249.201375 216.731875,250.477 218.85125,251.4145 C220.97,252.352 223.2475,252.82075 225.68625,252.82075 C228.535,252.82075 231.198125,252.18325 233.673125,250.907625 L233.673125,243.820125 L233.673125,241.45825 C233.673125,241.007625 233.579375,240.652 233.3925,240.3895 C233.20375,240.127 232.791875,239.995125 232.154375,239.995125 L225.573125,239.995125 Z" id="Fill-38" stroke="#FFFFFF" stroke-width="0.5" fill="#FFFFFF"></path>
            <polygon id="Fill-39" stroke="#FFFFFF" stroke-width="0.5" fill="#FFFFFF" points="260.16725 254.620375 260.16725 215.245375 283.511 215.245375 283.511 217.495375 262.472875 217.495375 262.472875 233.639125 281.31725 233.639125 281.31725 235.889125 262.472875 235.889125 262.472875 252.370375 284.297875 252.370375 284.297875 254.620375"></polygon>
        </g>
    </g>
</svg>